<?xml version="1.0" standalone="no"?>
<!DOCTYPE svg PUBLIC "-//W3C//DTD SVG 20010904//EN"
 "http://www.w3.org/TR/2001/REC-SVG-20010904/DTD/svg10.dtd">
<svg version="1.0" xmlns="http://www.w3.org/2000/svg"
 width="1990.000000pt" height="1990.000000pt" viewBox="0 0 1990.000000 1990.000000"
 preserveAspectRatio="xMidYMid meet">
<metadata>
Created by potrace 1.14, written by Peter Selinger 2001-2017
</metadata>
<g transform="translate(0.000000,1990.000000) scale(0.100000,-0.100000)"
fill="#000000" stroke="none">
<path d="M1855 19893 c-27 -2 -95 -10 -150 -19 -427 -65 -810 -259 -1115 -564
-305 -306 -490 -670 -567 -1120 -17 -101 -18 -446 -18 -8240 0 -7794 1 -8139
18 -8240 77 -450 262 -814 567 -1120 306 -305 670 -490 1120 -567 101 -17 446
-18 8240 -18 7794 0 8139 1 8240 18 450 77 814 262 1120 567 305 306 490 670
567 1120 17 101 18 446 18 8240 0 7794 -1 8139 -18 8240 -77 450 -262 814
-567 1120 -303 302 -652 481 -1110 567 -91 17 -468 18 -8195 19 -4455 0 -8122
-1 -8150 -3z m4739 -10780 l-1675 -1673 -1672 0 -1672 0 2510 2510 2510 2510
837 -837 837 -837 -1675 -1673z m4193 840 l-837 -838 -837 838 -838 837 840
834 840 835 835 -835 835 -834 -838 -837z m5867 -2511 l-1666 -2 -1679 1672
-1680 1672 838 838 838 838 2507 -2507 2508 -2508 -1666 -3z m-5394 356 l355
-358 -1665 0 -1665 0 835 835 835 835 475 -477 c261 -263 635 -639 830 -835z"/>
</g>
</svg>
